<svg id="svg" version="1.1" xmlns="http://www.w3.org/2000/svg" xmlns:xlink="http://www.w3.org/1999/xlink" width="400" height="400" viewBox="0, 0, 400,400"><g id="svgg"><path id="path0" d="M287.600 189.600 L 287.600 226.000 293.600 226.000 L 299.600 226.000 299.600 189.600 L 299.600 153.200 293.600 153.200 L 287.600 153.200 287.600 189.600 " stroke="none" fill="#34ab54" fill-rule="evenodd"></path><path id="path1" d="M203.000 177.600 C 202.864 177.820,201.863 178.000,200.776 178.000 C 199.689 178.000,198.800 178.180,198.800 178.400 C 198.800 178.620,198.260 178.800,197.600 178.800 C 196.940 178.800,196.400 178.980,196.400 179.200 C 196.400 179.420,196.057 179.600,195.638 179.600 C 194.731 179.600,191.600 181.208,191.600 181.674 C 191.600 181.853,191.340 182.000,191.022 182.000 C 190.270 182.000,185.200 187.070,185.200 187.822 C 185.200 188.140,185.053 188.400,184.874 188.400 C 184.408 188.400,182.800 191.531,182.800 192.438 C 182.800 192.857,182.620 193.200,182.400 193.200 C 182.180 193.200,182.000 193.740,182.000 194.400 C 182.000 195.060,181.820 195.600,181.600 195.600 C 181.349 195.600,181.200 198.133,181.200 202.400 C 181.200 206.667,181.349 209.200,181.600 209.200 C 181.820 209.200,182.000 209.740,182.000 210.400 C 182.000 211.060,182.180 211.600,182.400 211.600 C 182.620 211.600,182.800 211.943,182.800 212.362 C 182.800 213.269,184.408 216.400,184.874 216.400 C 185.053 216.400,185.200 216.661,185.200 216.981 C 185.200 217.737,191.063 223.600,191.819 223.600 C 192.139 223.600,192.400 223.780,192.400 224.000 C 192.400 224.220,192.760 224.400,193.200 224.400 C 193.640 224.400,194.000 224.580,194.000 224.800 C 194.000 225.020,194.360 225.200,194.800 225.200 C 195.240 225.200,195.600 225.380,195.600 225.600 C 195.600 225.820,196.140 226.000,196.800 226.000 C 197.460 226.000,198.000 226.180,198.000 226.400 C 198.000 226.620,198.720 226.800,199.600 226.800 C 200.480 226.800,201.200 226.980,201.200 227.200 C 201.200 227.444,203.067 227.600,206.000 227.600 C 208.933 227.600,210.800 227.444,210.800 227.200 C 210.800 226.980,211.599 226.800,212.576 226.800 C 213.553 226.800,214.464 226.620,214.600 226.400 C 214.736 226.180,215.197 226.000,215.624 226.000 C 216.051 226.000,216.400 225.820,216.400 225.600 C 216.400 225.380,216.760 225.200,217.200 225.200 C 217.640 225.200,218.000 225.020,218.000 224.800 C 218.000 224.580,218.360 224.400,218.800 224.400 C 219.240 224.400,219.600 224.220,219.600 224.000 C 219.600 223.780,219.852 223.600,220.159 223.600 C 220.936 223.600,226.800 217.797,226.800 217.027 C 226.800 216.682,226.947 216.400,227.126 216.400 C 227.592 216.400,229.200 213.269,229.200 212.362 C 229.200 211.943,229.380 211.600,229.600 211.600 C 229.820 211.600,230.000 211.060,230.000 210.400 C 230.000 209.740,230.180 209.200,230.400 209.200 C 230.650 209.200,230.800 206.741,230.800 202.624 C 230.800 198.671,230.640 195.949,230.400 195.800 C 230.180 195.664,230.000 195.023,230.000 194.376 C 230.000 193.729,229.820 193.200,229.600 193.200 C 229.380 193.200,229.200 192.857,229.200 192.438 C 229.200 191.531,227.592 188.400,227.126 188.400 C 226.947 188.400,226.800 188.140,226.800 187.822 C 226.800 187.070,221.730 182.000,220.978 182.000 C 220.660 182.000,220.400 181.853,220.400 181.674 C 220.400 181.208,217.269 179.600,216.362 179.600 C 215.943 179.600,215.600 179.420,215.600 179.200 C 215.600 178.980,215.060 178.800,214.400 178.800 C 213.740 178.800,213.200 178.620,213.200 178.400 C 213.200 178.178,212.133 178.000,210.800 178.000 C 209.467 178.000,208.400 177.822,208.400 177.600 C 208.400 177.375,207.275 177.200,205.824 177.200 C 204.407 177.200,203.136 177.380,203.000 177.600 M207.600 188.800 C 207.600 189.020,208.033 189.200,208.562 189.200 C 211.798 189.200,218.000 195.255,218.000 198.414 C 218.000 198.820,218.180 199.264,218.400 199.400 C 218.620 199.536,218.800 201.077,218.800 202.824 C 218.800 204.675,218.633 206.000,218.400 206.000 C 218.180 206.000,218.000 206.540,218.000 207.200 C 218.000 207.860,217.820 208.400,217.600 208.400 C 217.380 208.400,217.200 208.685,217.200 209.033 C 217.200 209.884,212.316 214.800,211.471 214.800 C 211.102 214.800,210.800 214.980,210.800 215.200 C 210.800 215.420,210.361 215.600,209.824 215.600 C 209.287 215.600,208.736 215.780,208.600 216.000 C 208.464 216.220,207.294 216.400,206.000 216.400 C 204.706 216.400,203.536 216.220,203.400 216.000 C 203.264 215.780,202.801 215.600,202.371 215.600 C 200.732 215.600,194.823 210.521,194.808 209.100 C 194.803 208.715,194.620 208.400,194.400 208.400 C 194.180 208.400,194.000 207.860,194.000 207.200 C 194.000 206.540,193.820 206.000,193.600 206.000 C 193.363 206.000,193.200 204.533,193.200 202.400 C 193.200 200.267,193.363 198.800,193.600 198.800 C 193.820 198.800,194.000 198.547,194.000 198.238 C 194.000 195.242,200.310 189.200,203.438 189.200 C 203.967 189.200,204.400 189.020,204.400 188.800 C 204.400 188.580,205.120 188.400,206.000 188.400 C 206.880 188.400,207.600 188.580,207.600 188.800 " stroke="none" fill="#fcbc04" fill-rule="evenodd"></path><path id="path2" d="M80.080 152.880 C 79.714 153.246,79.600 161.964,79.600 189.680 L 79.600 226.000 87.600 226.000 L 95.600 226.000 95.600 213.200 L 95.600 200.400 101.600 200.400 C 105.333 200.400,107.600 200.249,107.600 200.000 C 107.600 199.769,108.859 199.600,110.576 199.600 C 112.213 199.600,113.664 199.420,113.800 199.200 C 113.936 198.980,114.577 198.800,115.224 198.800 C 115.871 198.800,116.400 198.620,116.400 198.400 C 116.400 198.180,116.760 198.000,117.200 198.000 C 117.640 198.000,118.000 197.820,118.000 197.600 C 118.000 197.380,118.360 197.200,118.800 197.200 C 119.240 197.200,119.600 197.020,119.600 196.800 C 119.600 196.580,119.920 196.400,120.312 196.400 C 120.703 196.400,121.283 196.040,121.600 195.600 C 121.917 195.160,122.411 194.800,122.697 194.800 C 123.425 194.800,127.600 190.550,127.600 189.809 C 127.600 189.474,127.780 189.200,128.000 189.200 C 128.220 189.200,128.400 188.840,128.400 188.400 C 128.400 187.960,128.580 187.600,128.800 187.600 C 129.020 187.600,129.200 187.240,129.200 186.800 C 129.200 186.360,129.380 186.000,129.600 186.000 C 129.820 186.000,130.000 185.460,130.000 184.800 C 130.000 184.140,130.180 183.600,130.400 183.600 C 130.620 183.600,130.800 182.700,130.800 181.600 C 130.800 180.500,130.980 179.600,131.200 179.600 C 131.433 179.600,131.600 178.267,131.600 176.400 C 131.600 174.533,131.433 173.200,131.200 173.200 C 130.980 173.200,130.800 172.300,130.800 171.200 C 130.800 170.100,130.620 169.200,130.400 169.200 C 130.180 169.200,130.000 168.660,130.000 168.000 C 130.000 167.340,129.820 166.800,129.600 166.800 C 129.380 166.800,129.200 166.440,129.200 166.000 C 129.200 165.560,129.020 165.200,128.800 165.200 C 128.580 165.200,128.400 164.840,128.400 164.400 C 128.400 163.960,128.220 163.600,128.000 163.600 C 127.780 163.600,127.600 163.342,127.600 163.026 C 127.600 162.330,123.346 158.000,122.662 158.000 C 122.395 158.000,121.917 157.640,121.600 157.200 C 121.283 156.760,120.703 156.400,120.312 156.400 C 119.920 156.400,119.600 156.220,119.600 156.000 C 119.600 155.780,119.240 155.600,118.800 155.600 C 118.360 155.600,118.000 155.420,118.000 155.200 C 118.000 154.980,117.640 154.800,117.200 154.800 C 116.760 154.800,116.400 154.620,116.400 154.400 C 116.400 154.180,115.680 154.000,114.800 154.000 C 113.920 154.000,113.200 153.820,113.200 153.600 C 113.200 153.371,112.000 153.200,110.400 153.200 C 108.800 153.200,107.600 153.029,107.600 152.800 C 107.600 152.182,80.700 152.260,80.080 152.880 M108.400 168.000 C 108.400 168.220,108.940 168.400,109.600 168.400 C 110.260 168.400,110.800 168.580,110.800 168.800 C 110.800 169.020,111.076 169.200,111.413 169.200 C 111.751 169.200,112.651 169.824,113.413 170.587 C 114.176 171.349,114.800 172.249,114.800 172.587 C 114.800 172.924,114.980 173.200,115.200 173.200 C 115.775 173.200,115.696 178.034,115.100 179.317 C 114.825 179.909,114.465 180.395,114.300 180.397 C 114.135 180.399,114.000 180.678,114.000 181.018 C 114.000 181.358,113.558 182.078,113.018 182.618 C 112.478 183.158,111.758 183.600,111.418 183.600 C 111.078 183.600,110.800 183.780,110.800 184.000 C 110.800 184.220,110.361 184.400,109.824 184.400 C 109.287 184.400,108.736 184.580,108.600 184.800 C 108.452 185.040,105.796 185.200,101.976 185.200 L 95.600 185.200 95.600 176.400 L 95.600 167.600 102.000 167.600 C 106.000 167.600,108.400 167.750,108.400 168.000 M255.600 177.600 C 255.600 177.820,254.621 178.000,253.424 178.000 C 252.227 178.000,251.136 178.180,251.000 178.400 C 250.864 178.620,250.324 178.800,249.800 178.800 C 249.276 178.800,248.736 178.980,248.600 179.200 C 248.464 179.420,248.003 179.600,247.576 179.600 C 247.149 179.600,246.800 179.780,246.800 180.000 C 246.800 180.220,246.557 180.400,246.259 180.400 C 245.962 180.400,245.154 180.940,244.463 181.600 C 243.772 182.260,243.062 182.800,242.885 182.800 C 242.490 182.800,239.600 185.721,239.600 186.121 C 239.600 186.278,239.060 186.972,238.400 187.663 C 237.740 188.354,237.200 189.162,237.200 189.459 C 237.200 189.757,237.020 190.000,236.800 190.000 C 236.580 190.000,236.400 190.360,236.400 190.800 C 236.400 191.240,236.220 191.600,236.000 191.600 C 235.780 191.600,235.600 192.140,235.600 192.800 C 235.600 193.460,235.420 194.000,235.200 194.000 C 234.980 194.000,234.800 194.540,234.800 195.200 C 234.800 195.860,234.620 196.400,234.400 196.400 C 234.151 196.400,234.000 198.667,234.000 202.400 C 234.000 206.133,234.151 208.400,234.400 208.400 C 234.620 208.400,234.800 209.120,234.800 210.000 C 234.800 210.880,234.980 211.600,235.200 211.600 C 235.420 211.600,235.600 211.960,235.600 212.400 C 235.600 212.840,235.780 213.200,236.000 213.200 C 236.220 213.200,236.400 213.560,236.400 214.000 C 236.400 214.440,236.580 214.800,236.800 214.800 C 237.020 214.800,237.200 215.160,237.200 215.600 C 237.200 216.040,237.380 216.400,237.600 216.400 C 237.820 216.400,238.000 216.661,238.000 216.981 C 238.000 217.737,243.863 223.600,244.619 223.600 C 244.939 223.600,245.200 223.780,245.200 224.000 C 245.200 224.220,245.560 224.400,246.000 224.400 C 246.440 224.400,246.800 224.580,246.800 224.800 C 246.800 225.020,247.160 225.200,247.600 225.200 C 248.040 225.200,248.400 225.380,248.400 225.600 C 248.400 225.820,248.760 226.000,249.200 226.000 C 249.640 226.000,250.000 226.180,250.000 226.400 C 250.000 226.620,250.720 226.800,251.600 226.800 C 252.480 226.800,253.200 226.980,253.200 227.200 C 253.200 227.443,254.992 227.600,257.776 227.600 C 260.396 227.600,262.458 227.429,262.600 227.200 C 262.736 226.980,263.377 226.800,264.024 226.800 C 264.671 226.800,265.200 226.620,265.200 226.400 C 265.200 226.180,265.560 226.000,266.000 226.000 C 266.440 226.000,266.800 225.820,266.800 225.600 C 266.800 225.380,267.120 225.200,267.512 225.200 C 267.903 225.200,268.483 224.840,268.800 224.400 C 269.759 223.069,270.000 223.471,270.000 226.400 C 270.000 228.000,269.829 229.200,269.600 229.200 C 269.380 229.200,269.200 229.740,269.200 230.400 C 269.200 231.060,269.020 231.600,268.800 231.600 C 268.580 231.600,268.400 231.875,268.400 232.211 C 268.400 233.004,265.004 236.400,264.211 236.400 C 263.875 236.400,263.600 236.580,263.600 236.800 C 263.600 237.020,263.240 237.200,262.800 237.200 C 262.360 237.200,262.000 237.380,262.000 237.600 C 262.000 237.837,260.533 238.000,258.400 238.000 C 256.267 238.000,254.800 237.837,254.800 237.600 C 254.800 237.380,254.440 237.200,254.000 237.200 C 253.560 237.200,253.200 237.020,253.200 236.800 C 253.200 236.580,252.926 236.400,252.591 236.400 C 251.799 236.400,247.600 232.201,247.600 231.409 C 247.600 231.074,247.420 230.800,247.200 230.800 C 246.980 230.800,246.800 230.440,246.800 230.000 C 246.800 229.467,246.533 229.200,246.000 229.200 C 245.560 229.200,245.200 229.380,245.200 229.600 C 245.200 229.820,244.761 230.000,244.224 230.000 C 243.687 230.000,243.136 230.180,243.000 230.400 C 242.864 230.620,242.403 230.800,241.976 230.800 C 241.549 230.800,241.200 230.980,241.200 231.200 C 241.200 231.420,240.840 231.600,240.400 231.600 C 239.960 231.600,239.600 231.780,239.600 232.000 C 239.600 232.220,239.060 232.400,238.400 232.400 C 237.740 232.400,237.200 232.580,237.200 232.800 C 237.200 233.020,236.840 233.200,236.400 233.200 C 235.778 233.200,235.600 233.467,235.600 234.400 C 235.600 235.060,235.780 235.600,236.000 235.600 C 236.220 235.600,236.400 235.960,236.400 236.400 C 236.400 236.840,236.580 237.200,236.800 237.200 C 237.020 237.200,237.200 237.443,237.200 237.741 C 237.200 238.038,237.740 238.846,238.400 239.537 C 239.060 240.228,239.600 240.938,239.600 241.115 C 239.600 241.572,242.552 244.400,243.029 244.400 C 243.246 244.400,243.683 244.760,244.000 245.200 C 244.317 245.640,244.897 246.000,245.288 246.000 C 245.680 246.000,246.000 246.180,246.000 246.400 C 246.000 246.620,246.360 246.800,246.800 246.800 C 247.240 246.800,247.600 246.980,247.600 247.200 C 247.600 247.420,247.960 247.600,248.400 247.600 C 248.840 247.600,249.200 247.780,249.200 248.000 C 249.200 248.220,249.920 248.400,250.800 248.400 C 251.680 248.400,252.400 248.580,252.400 248.800 C 252.400 249.049,254.667 249.200,258.400 249.200 C 262.133 249.200,264.400 249.049,264.400 248.800 C 264.400 248.580,265.120 248.400,266.000 248.400 C 266.880 248.400,267.600 248.220,267.600 248.000 C 267.600 247.780,267.960 247.600,268.400 247.600 C 268.840 247.600,269.200 247.420,269.200 247.200 C 269.200 246.980,269.560 246.800,270.000 246.800 C 270.440 246.800,270.800 246.620,270.800 246.400 C 270.800 246.180,271.094 246.000,271.453 246.000 C 271.812 246.000,272.400 245.685,272.759 245.300 C 273.118 244.915,273.757 244.408,274.179 244.173 C 274.601 243.939,275.139 243.404,275.373 242.985 C 275.608 242.567,276.295 241.742,276.900 241.152 C 277.505 240.562,278.000 239.791,278.000 239.440 C 278.000 239.088,278.180 238.800,278.400 238.800 C 278.620 238.800,278.800 238.440,278.800 238.000 C 278.800 237.560,278.980 237.200,279.200 237.200 C 279.420 237.200,279.600 236.840,279.600 236.400 C 279.600 235.960,279.780 235.600,280.000 235.600 C 280.220 235.600,280.400 235.060,280.400 234.400 C 280.400 233.740,280.580 233.200,280.800 233.200 C 281.020 233.200,281.200 232.311,281.200 231.224 C 281.200 230.137,281.380 229.136,281.600 229.000 C 281.860 228.839,282.000 219.996,282.000 203.776 L 282.000 178.800 276.000 178.800 L 270.000 178.800 270.000 180.000 C 270.000 180.660,269.820 181.200,269.600 181.200 C 269.380 181.200,269.200 181.020,269.200 180.800 C 269.200 180.580,268.922 180.400,268.583 180.400 C 268.244 180.400,267.580 180.040,267.108 179.600 C 266.636 179.160,265.833 178.800,265.325 178.800 C 264.816 178.800,264.400 178.620,264.400 178.400 C 264.400 178.180,263.511 178.000,262.424 178.000 C 261.337 178.000,260.336 177.820,260.200 177.600 C 260.064 177.380,258.973 177.200,257.776 177.200 C 256.579 177.200,255.600 177.380,255.600 177.600 M259.800 188.800 C 259.936 189.020,260.667 189.200,261.424 189.200 C 262.181 189.200,262.800 189.380,262.800 189.600 C 262.800 189.820,263.087 190.000,263.437 190.000 C 264.267 190.000,269.200 194.933,269.200 195.763 C 269.200 196.113,269.380 196.400,269.600 196.400 C 269.820 196.400,270.000 196.940,270.000 197.600 C 270.000 198.260,270.180 198.800,270.400 198.800 C 270.637 198.800,270.800 200.259,270.800 202.376 C 270.800 204.343,270.620 206.064,270.400 206.200 C 270.180 206.336,270.000 206.887,270.000 207.424 C 270.000 207.961,269.820 208.400,269.600 208.400 C 269.380 208.400,269.200 208.760,269.200 209.200 C 269.200 209.640,269.020 210.000,268.800 210.000 C 268.580 210.000,268.400 210.276,268.400 210.613 C 268.400 211.360,266.201 213.589,264.697 214.368 C 264.094 214.680,263.600 215.085,263.600 215.268 C 263.600 215.450,263.060 215.600,262.400 215.600 C 261.740 215.600,261.200 215.780,261.200 216.000 C 261.200 216.222,260.141 216.400,258.824 216.400 C 257.517 216.400,256.336 216.220,256.200 216.000 C 256.064 215.780,255.513 215.600,254.976 215.600 C 254.439 215.600,254.000 215.420,254.000 215.200 C 254.000 214.980,253.685 214.796,253.300 214.791 C 251.596 214.768,246.800 208.402,246.800 206.162 C 246.800 205.633,246.620 205.200,246.400 205.200 C 246.178 205.200,246.000 204.141,246.000 202.824 C 246.000 201.517,246.180 200.336,246.400 200.200 C 246.620 200.064,246.800 199.333,246.800 198.576 C 246.800 197.819,246.980 197.200,247.200 197.200 C 247.420 197.200,247.600 196.840,247.600 196.400 C 247.600 195.960,247.780 195.600,248.000 195.600 C 248.220 195.600,248.400 195.325,248.400 194.989 C 248.400 194.196,251.796 190.800,252.589 190.800 C 252.925 190.800,253.200 190.620,253.200 190.400 C 253.200 190.180,253.560 190.000,254.000 190.000 C 254.440 190.000,254.800 189.820,254.800 189.600 C 254.800 189.380,255.340 189.200,256.000 189.200 C 256.660 189.200,257.200 189.020,257.200 188.800 C 257.200 188.580,257.729 188.400,258.376 188.400 C 259.023 188.400,259.664 188.580,259.800 188.800 " stroke="none" fill="#4484f4" fill-rule="evenodd"></path><path id="path3" d="M150.200 177.600 C 150.064 177.820,148.984 178.000,147.800 178.000 C 146.616 178.000,145.536 178.180,145.400 178.400 C 145.264 178.620,144.724 178.800,144.200 178.800 C 143.676 178.800,143.136 178.980,143.000 179.200 C 142.864 179.420,142.403 179.600,141.976 179.600 C 141.549 179.600,141.200 179.780,141.200 180.000 C 141.200 180.220,140.880 180.400,140.488 180.400 C 140.097 180.400,139.517 180.760,139.200 181.200 C 138.883 181.640,138.390 182.000,138.104 182.000 C 137.428 182.000,132.400 187.028,132.400 187.704 C 132.400 187.990,132.040 188.483,131.600 188.800 C 131.160 189.117,130.800 189.697,130.800 190.088 C 130.800 190.480,130.620 190.800,130.400 190.800 C 130.180 190.800,130.000 191.149,130.000 191.576 C 130.000 192.003,129.820 192.464,129.600 192.600 C 129.380 192.736,129.200 193.276,129.200 193.800 C 129.200 194.324,129.020 194.864,128.800 195.000 C 128.580 195.136,128.400 196.227,128.400 197.424 C 128.400 198.621,128.220 199.600,128.000 199.600 C 127.775 199.600,127.600 200.725,127.600 202.176 C 127.600 203.593,127.780 204.864,128.000 205.000 C 128.220 205.136,128.400 206.216,128.400 207.400 C 128.400 208.584,128.580 209.664,128.800 209.800 C 129.020 209.936,129.200 210.577,129.200 211.224 C 129.200 211.871,129.380 212.400,129.600 212.400 C 129.820 212.400,130.000 212.760,130.000 213.200 C 130.000 213.640,130.180 214.000,130.400 214.000 C 130.620 214.000,130.800 214.360,130.800 214.800 C 130.800 215.240,130.980 215.600,131.200 215.600 C 131.420 215.600,131.600 215.854,131.600 216.163 C 131.600 216.941,138.204 223.600,138.975 223.600 C 139.319 223.600,139.600 223.780,139.600 224.000 C 139.600 224.220,139.960 224.400,140.400 224.400 C 140.840 224.400,141.200 224.580,141.200 224.800 C 141.200 225.020,141.560 225.200,142.000 225.200 C 142.440 225.200,142.800 225.380,142.800 225.600 C 142.800 225.820,143.149 226.000,143.576 226.000 C 144.003 226.000,144.464 226.180,144.600 226.400 C 144.736 226.620,145.647 226.800,146.624 226.800 C 147.601 226.800,148.400 226.980,148.400 227.200 C 148.400 227.444,150.267 227.600,153.200 227.600 C 156.133 227.600,158.000 227.444,158.000 227.200 C 158.000 226.980,158.720 226.800,159.600 226.800 C 160.480 226.800,161.200 226.620,161.200 226.400 C 161.200 226.180,161.740 226.000,162.400 226.000 C 163.060 226.000,163.600 225.820,163.600 225.600 C 163.600 225.380,163.960 225.200,164.400 225.200 C 164.840 225.200,165.200 225.020,165.200 224.800 C 165.200 224.580,165.560 224.400,166.000 224.400 C 166.440 224.400,166.800 224.220,166.800 224.000 C 166.800 223.780,167.061 223.600,167.381 223.600 C 168.137 223.600,174.000 217.737,174.000 216.981 C 174.000 216.661,174.147 216.400,174.326 216.400 C 174.792 216.400,176.400 213.269,176.400 212.362 C 176.400 211.943,176.580 211.600,176.800 211.600 C 177.020 211.600,177.200 210.880,177.200 210.000 C 177.200 209.120,177.380 208.400,177.600 208.400 C 177.849 208.400,178.000 206.133,178.000 202.400 C 178.000 198.667,177.849 196.400,177.600 196.400 C 177.380 196.400,177.200 195.680,177.200 194.800 C 177.200 193.920,177.020 193.200,176.800 193.200 C 176.580 193.200,176.400 192.840,176.400 192.400 C 176.400 191.960,176.220 191.600,176.000 191.600 C 175.780 191.600,175.600 191.240,175.600 190.800 C 175.600 190.360,175.420 190.000,175.200 190.000 C 174.980 190.000,174.800 189.640,174.800 189.200 C 174.800 188.760,174.620 188.400,174.400 188.400 C 174.180 188.400,174.000 188.140,174.000 187.822 C 174.000 187.070,168.930 182.000,168.178 182.000 C 167.860 182.000,167.600 181.820,167.600 181.600 C 167.600 181.380,167.322 181.200,166.983 181.200 C 166.644 181.200,165.980 180.840,165.508 180.400 C 165.036 179.960,164.233 179.600,163.725 179.600 C 163.216 179.600,162.800 179.420,162.800 179.200 C 162.800 178.980,162.260 178.800,161.600 178.800 C 160.940 178.800,160.400 178.620,160.400 178.400 C 160.400 178.178,159.333 178.000,158.000 178.000 C 156.667 178.000,155.600 177.822,155.600 177.600 C 155.600 177.375,154.475 177.200,153.024 177.200 C 151.607 177.200,150.336 177.380,150.200 177.600 M323.000 177.600 C 322.864 177.820,321.964 178.000,321.000 178.000 C 320.036 178.000,319.136 178.180,319.000 178.400 C 318.864 178.620,318.420 178.800,318.014 178.800 C 317.125 178.800,314.000 180.415,314.000 180.874 C 314.000 181.053,313.727 181.200,313.394 181.200 C 312.603 181.200,306.800 187.003,306.800 187.794 C 306.800 188.127,306.620 188.400,306.400 188.400 C 306.180 188.400,306.000 188.760,306.000 189.200 C 306.000 189.640,305.820 190.000,305.600 190.000 C 305.380 190.000,305.200 190.360,305.200 190.800 C 305.200 191.240,305.020 191.600,304.800 191.600 C 304.580 191.600,304.400 191.949,304.400 192.376 C 304.400 192.803,304.220 193.264,304.000 193.400 C 303.780 193.536,303.600 194.447,303.600 195.424 C 303.600 196.401,303.420 197.200,303.200 197.200 C 302.954 197.200,302.800 199.200,302.800 202.400 C 302.800 205.600,302.954 207.600,303.200 207.600 C 303.420 207.600,303.600 208.399,303.600 209.376 C 303.600 210.353,303.780 211.264,304.000 211.400 C 304.220 211.536,304.400 211.997,304.400 212.424 C 304.400 212.851,304.580 213.200,304.800 213.200 C 305.020 213.200,305.200 213.560,305.200 214.000 C 305.200 214.440,305.380 214.800,305.600 214.800 C 305.820 214.800,306.000 215.160,306.000 215.600 C 306.000 216.040,306.180 216.400,306.400 216.400 C 306.620 216.400,306.800 216.661,306.800 216.981 C 306.800 217.737,312.663 223.600,313.419 223.600 C 313.739 223.600,314.000 223.780,314.000 224.000 C 314.000 224.220,314.360 224.400,314.800 224.400 C 315.240 224.400,315.600 224.580,315.600 224.800 C 315.600 225.020,315.960 225.200,316.400 225.200 C 316.840 225.200,317.200 225.380,317.200 225.600 C 317.200 225.820,317.549 226.000,317.976 226.000 C 318.403 226.000,318.864 226.180,319.000 226.400 C 319.136 226.620,320.047 226.800,321.024 226.800 C 322.001 226.800,322.800 226.980,322.800 227.200 C 322.800 227.444,324.667 227.600,327.600 227.600 C 330.533 227.600,332.400 227.444,332.400 227.200 C 332.400 226.980,333.120 226.800,334.000 226.800 C 334.880 226.800,335.600 226.620,335.600 226.400 C 335.600 226.180,336.140 226.000,336.800 226.000 C 337.460 226.000,338.000 225.820,338.000 225.600 C 338.000 225.380,338.360 225.200,338.800 225.200 C 339.240 225.200,339.600 225.020,339.600 224.800 C 339.600 224.580,339.843 224.400,340.141 224.400 C 340.438 224.400,341.246 223.860,341.937 223.200 C 342.628 222.540,343.362 222.000,343.570 222.000 C 344.135 222.000,347.600 218.321,347.600 217.721 C 347.600 217.434,347.780 217.200,348.000 217.200 C 348.220 217.200,348.400 216.660,348.400 216.000 C 348.400 215.116,348.212 214.800,347.688 214.800 C 347.297 214.800,346.717 214.440,346.400 214.000 C 346.083 213.560,345.543 213.200,345.200 213.200 C 344.857 213.200,344.317 212.840,344.000 212.400 C 343.683 211.960,343.143 211.600,342.800 211.600 C 342.457 211.600,341.917 211.240,341.600 210.800 C 340.472 209.236,338.758 209.737,336.150 212.395 C 334.858 213.711,333.485 214.791,333.100 214.795 C 332.715 214.798,332.400 214.980,332.400 215.200 C 332.400 215.420,331.860 215.600,331.200 215.600 C 330.540 215.600,330.000 215.780,330.000 216.000 C 330.000 216.229,328.800 216.400,327.200 216.400 C 325.600 216.400,324.400 216.229,324.400 216.000 C 324.400 215.780,323.860 215.600,323.200 215.600 C 322.540 215.600,322.000 215.450,322.000 215.268 C 322.000 215.085,321.505 214.680,320.900 214.368 C 319.639 213.717,318.423 212.545,317.700 211.283 C 317.034 210.121,317.062 210.000,318.000 210.000 C 318.440 210.000,318.800 209.820,318.800 209.600 C 318.800 209.380,319.239 209.200,319.776 209.200 C 320.313 209.200,320.864 209.020,321.000 208.800 C 321.136 208.580,321.597 208.400,322.024 208.400 C 322.451 208.400,322.800 208.220,322.800 208.000 C 322.800 207.780,323.160 207.600,323.600 207.600 C 324.040 207.600,324.400 207.420,324.400 207.200 C 324.400 206.980,324.940 206.800,325.600 206.800 C 326.260 206.800,326.800 206.620,326.800 206.400 C 326.800 206.180,327.160 206.000,327.600 206.000 C 328.040 206.000,328.400 205.820,328.400 205.600 C 328.400 205.380,328.839 205.200,329.376 205.200 C 329.913 205.200,330.464 205.020,330.600 204.800 C 330.736 204.580,331.197 204.400,331.624 204.400 C 332.051 204.400,332.400 204.220,332.400 204.000 C 332.400 203.780,332.760 203.600,333.200 203.600 C 333.640 203.600,334.000 203.420,334.000 203.200 C 334.000 202.980,334.540 202.800,335.200 202.800 C 335.860 202.800,336.400 202.620,336.400 202.400 C 336.400 202.180,336.760 202.000,337.200 202.000 C 337.640 202.000,338.000 201.820,338.000 201.600 C 338.000 201.380,338.439 201.200,338.976 201.200 C 339.513 201.200,340.064 201.020,340.200 200.800 C 340.336 200.580,340.797 200.400,341.224 200.400 C 341.651 200.400,342.000 200.220,342.000 200.000 C 342.000 199.780,342.439 199.600,342.976 199.600 C 343.513 199.600,344.064 199.420,344.200 199.200 C 344.336 198.980,344.797 198.800,345.224 198.800 C 345.651 198.800,346.000 198.620,346.000 198.400 C 346.000 198.180,346.283 198.000,346.629 198.000 C 346.974 198.000,347.514 197.743,347.829 197.429 C 348.475 196.782,348.614 194.000,348.000 194.000 C 347.780 194.000,347.600 193.561,347.600 193.024 C 347.600 192.487,347.420 191.936,347.200 191.800 C 346.980 191.664,346.800 191.203,346.800 190.776 C 346.800 190.349,346.620 190.000,346.400 190.000 C 346.180 190.000,346.000 189.680,346.000 189.288 C 346.000 188.897,345.640 188.317,345.200 188.000 C 344.760 187.683,344.400 187.179,344.400 186.881 C 344.400 186.178,339.278 181.200,338.554 181.200 C 338.249 181.200,338.000 181.053,338.000 180.874 C 338.000 180.408,334.869 178.800,333.962 178.800 C 333.543 178.800,333.200 178.620,333.200 178.400 C 333.200 178.180,332.300 178.000,331.200 178.000 C 330.100 178.000,329.200 177.820,329.200 177.600 C 329.200 177.369,327.941 177.200,326.224 177.200 C 324.587 177.200,323.136 177.380,323.000 177.600 M154.800 188.800 C 154.800 189.020,155.340 189.200,156.000 189.200 C 156.660 189.200,157.200 189.380,157.200 189.600 C 157.200 189.820,157.560 190.000,158.000 190.000 C 158.440 190.000,158.800 190.180,158.800 190.400 C 158.800 190.620,159.075 190.800,159.411 190.800 C 159.746 190.800,160.826 191.605,161.811 192.589 C 162.795 193.574,163.600 194.654,163.600 194.989 C 163.600 195.325,163.780 195.600,164.000 195.600 C 164.220 195.600,164.400 195.960,164.400 196.400 C 164.400 196.840,164.580 197.200,164.800 197.200 C 165.020 197.200,165.200 197.740,165.200 198.400 C 165.200 199.060,165.380 199.600,165.600 199.600 C 165.829 199.600,166.000 200.800,166.000 202.400 C 166.000 204.000,165.829 205.200,165.600 205.200 C 165.380 205.200,165.200 205.633,165.200 206.162 C 165.200 208.371,160.307 214.800,158.626 214.800 C 158.282 214.800,158.000 214.980,158.000 215.200 C 158.000 215.420,157.460 215.600,156.800 215.600 C 156.140 215.600,155.600 215.780,155.600 216.000 C 155.600 216.222,154.541 216.400,153.224 216.400 C 151.917 216.400,150.736 216.220,150.600 216.000 C 150.464 215.780,149.913 215.600,149.376 215.600 C 148.839 215.600,148.400 215.420,148.400 215.200 C 148.400 214.980,148.040 214.800,147.600 214.800 C 147.160 214.800,146.800 214.650,146.800 214.468 C 146.800 214.285,146.305 213.880,145.700 213.568 C 144.323 212.857,143.943 212.477,143.232 211.100 C 142.920 210.495,142.515 210.000,142.332 210.000 C 142.150 210.000,142.000 209.640,142.000 209.200 C 142.000 208.760,141.820 208.400,141.600 208.400 C 141.380 208.400,141.200 207.961,141.200 207.424 C 141.200 206.887,141.020 206.336,140.800 206.200 C 140.580 206.064,140.400 204.343,140.400 202.376 C 140.400 200.259,140.563 198.800,140.800 198.800 C 141.020 198.800,141.200 198.260,141.200 197.600 C 141.200 196.940,141.380 196.400,141.600 196.400 C 141.820 196.400,142.000 196.118,142.000 195.774 C 142.000 194.083,148.416 189.200,150.638 189.200 C 151.167 189.200,151.600 189.020,151.600 188.800 C 151.600 188.580,152.320 188.400,153.200 188.400 C 154.080 188.400,154.800 188.580,154.800 188.800 M329.200 188.800 C 329.200 189.020,329.560 189.200,330.000 189.200 C 330.440 189.200,330.800 189.380,330.800 189.600 C 330.800 189.820,331.078 190.000,331.418 190.000 C 331.976 190.000,334.284 191.942,333.942 192.124 C 333.864 192.166,333.397 192.425,332.905 192.700 C 332.413 192.975,331.738 193.200,331.405 193.200 C 331.072 193.200,330.800 193.380,330.800 193.600 C 330.800 193.820,330.440 194.000,330.000 194.000 C 329.560 194.000,329.200 194.180,329.200 194.400 C 329.200 194.620,328.761 194.800,328.224 194.800 C 327.687 194.800,327.136 194.980,327.000 195.200 C 326.864 195.420,326.403 195.600,325.976 195.600 C 325.549 195.600,325.200 195.780,325.200 196.000 C 325.200 196.220,324.840 196.400,324.400 196.400 C 323.960 196.400,323.600 196.580,323.600 196.800 C 323.600 197.020,323.060 197.200,322.400 197.200 C 321.740 197.200,321.200 197.380,321.200 197.600 C 321.200 197.820,320.840 198.000,320.400 198.000 C 319.960 198.000,319.600 198.180,319.600 198.400 C 319.600 198.620,319.161 198.800,318.624 198.800 C 318.087 198.800,317.536 198.980,317.400 199.200 C 317.264 199.420,316.803 199.600,316.376 199.600 C 315.949 199.600,315.600 199.780,315.600 200.000 C 315.600 200.220,315.420 200.400,315.200 200.400 C 314.980 200.400,314.800 199.871,314.800 199.224 C 314.800 198.577,314.980 197.936,315.200 197.800 C 315.420 197.664,315.600 197.113,315.600 196.576 C 315.600 196.039,315.750 195.600,315.932 195.600 C 316.115 195.600,316.520 195.106,316.832 194.503 C 317.973 192.298,322.066 189.200,323.838 189.200 C 324.147 189.200,324.400 189.020,324.400 188.800 C 324.400 188.578,325.467 188.400,326.800 188.400 C 328.133 188.400,329.200 188.578,329.200 188.800 " stroke="none" fill="#ec4434" fill-rule="evenodd"></path><path id="path4" d="" stroke="none" fill="#c4846c" fill-rule="evenodd"></path></g></svg>